<svg height="512" viewBox="0 0 512 512" width="512" xmlns="http://www.w3.org/2000/svg"><g id="solid"><path d="m310 400h52a6.006 6.006 0 0 1 6 6v26h-18a21.9 21.9 0 0 0 -14 5.042 21.9 21.9 0 0 0 -14-5.042h-18v-26a6.006 6.006 0 0 1 6-6zm-80 0h52a6.006 6.006 0 0 1 6 6v26h-18a21.9 21.9 0 0 0 -14 5.042 21.9 21.9 0 0 0 -14-5.042h-18v-26a6.006 6.006 0 0 1 6-6zm-80 0h52a6.006 6.006 0 0 1 6 6v26h-18a21.9 21.9 0 0 0 -14 5.042 21.9 21.9 0 0 0 -14-5.042h-18v-26a6.006 6.006 0 0 1 6-6zm-86 6a6.006 6.006 0 0 1 6-6h52a6.006 6.006 0 0 1 6 6v26h-64zm40 48a6.006 6.006 0 0 1 6-6h52a6.006 6.006 0 0 1 6 6v26h-64zm80 0a6.006 6.006 0 0 1 6-6h52a6.006 6.006 0 0 1 6 6v26h-64zm80 0a6.006 6.006 0 0 1 6-6h52a6.006 6.006 0 0 1 6 6v26h-64zm144 0v26h-64v-26a6.006 6.006 0 0 1 6-6h52a6.006 6.006 0 0 1 6 6zm40-22h-64v-26a6.006 6.006 0 0 1 6-6h52a6.006 6.006 0 0 1 6 6z"/><path d="m49.325 248 13.539 88h21.488l-33.846-88z"/><path d="m71.484 32h-39.484v161.815a228.086 228.086 0 0 0 36.237-109.868z"/><path d="m147.411 59.461a55.7 55.7 0 0 1 -30.425 19.012l-.917 16.5a71.922 71.922 0 0 0 37.168-18.459 110.96 110.96 0 0 1 -5.826-17.053z"/><path d="m32 248v88h14.675l-13.538-88z"/><path d="m32 216v16h8 8v-16h-15.999z"/><path d="m53.045 200a136.123 136.123 0 0 0 46.434-94.83l4.064-73.17h-16.027l-3.31 52.945a244.064 244.064 0 0 1 -37.17 115.055z"/><path d="m394.071 61.5-1.638-29.5h-23.609a40.3 40.3 0 0 0 25.247 29.5z"/><path d="m458.955 200h6.009a244.067 244.067 0 0 1 -37.17-115.055l-3.31-52.945h-16.027l4.064 73.17a136.127 136.127 0 0 0 46.434 94.83z"/><path d="m395.015 78.482a55.974 55.974 0 0 1 -30.387-19.182 111.067 111.067 0 0 1 -5.864 17.212 72.008 72.008 0 0 0 37.168 18.471z"/><path d="m256 128a96.108 96.108 0 0 0 96-96h-16a80 80 0 0 1 -160 0h-16a96.108 96.108 0 0 0 96 96z"/><path d="m256 64a32.036 32.036 0 0 0 32-32h-64a32.036 32.036 0 0 0 32 32z"/><path d="m256 96a64.072 64.072 0 0 0 64-64h-16a48 48 0 0 1 -96 0h-16a64.072 64.072 0 0 0 64 64z"/><path d="m143.2 32h-23.63l-1.64 29.521a39.8 39.8 0 0 0 25.27-29.521z"/><path d="m427.648 336h21.488l13.539-88h-1.181z"/><path d="m448 211.685a152.224 152.224 0 0 1 -51.058-100.379 87.994 87.994 0 0 1 -45.852-20.2 111.923 111.923 0 0 1 -190.185-.006 87.863 87.863 0 0 1 -45.846 20.189 152.221 152.221 0 0 1 -51.059 100.396v26.83l25.187 65.485h333.626l25.187-65.485zm-88-35.685h-64.861a55.954 55.954 0 0 1 10.722 65.514l23.506 11.753a12 12 0 0 1 0 21.466l-35.055 17.528a12 12 0 0 1 -17.368-10.733v-13.575a55.724 55.724 0 0 1 -20.944 4.047h-104a8 8 0 0 1 0-16h64.862a55.963 55.963 0 0 1 39.138-96h104a8 8 0 0 1 0 16z"/><path d="m465.325 336h14.675v-88h-1.137z"/><path d="m464 216v16h8 8v-16h-.001z"/><path d="m256 176a40 40 0 0 0 0 80 39.613 39.613 0 0 0 20.944-5.919v-3.609a12.005 12.005 0 0 1 14.414-11.758 40.009 40.009 0 0 0 -35.358-58.714zm-24 48a8 8 0 1 1 8-8 8 8 0 0 1 -8 8zm24 24a8 8 0 1 1 8-8 8 8 0 0 1 -8 8zm0-48a8 8 0 1 1 8-8 8 8 0 0 1 -8 8zm32 16a8 8 0 1 1 -8-8 8 8 0 0 1 8 8z"/><path d="m440.516 32 3.247 51.947a228.086 228.086 0 0 0 36.237 109.868v-161.815z"/><path d="m292.944 275.056 22.112-11.056-22.112-11.056z"/><path d="m101.494 336h309.012l6.154-16h-321.319z"/></g></svg>