<?xml version="1.0"?>
<svg xmlns="http://www.w3.org/2000/svg" viewBox="0 0 512 512" width="512" height="512"><g id="outline"><path d="M488,16H24a8,8,0,0,0-8,8V344a8,8,0,0,0,8,8H488a8,8,0,0,0,8-8V24A8,8,0,0,0,488,16ZM101.494,336l-6.153-16H416.66l-6.154,16Zm321.319-32H89.187L64,238.515v-26.83a152.221,152.221,0,0,0,51.059-100.4A87.863,87.863,0,0,0,160.905,91.1a111.923,111.923,0,0,0,190.185.008,87.994,87.994,0,0,0,45.852,20.2A152.224,152.224,0,0,0,448,211.685v26.83ZM32,216H48v16H32ZM143.2,32a39.8,39.8,0,0,1-25.27,29.521L119.567,32Zm10.04,44.515a71.922,71.922,0,0,1-37.168,18.459l.917-16.5a55.7,55.7,0,0,0,30.425-19.012A110.96,110.96,0,0,0,153.237,76.515ZM392.433,32,394.071,61.5A40.3,40.3,0,0,1,368.824,32Zm2.582,46.482.917,16.5a72.008,72.008,0,0,1-37.168-18.471A111.067,111.067,0,0,0,364.628,59.3,55.974,55.974,0,0,0,395.015,78.482ZM464,232V216h16v16H464Zm16-38.185A228.086,228.086,0,0,1,443.763,83.947L440.516,32H480ZM424.484,32l3.31,52.945A244.067,244.067,0,0,0,464.964,200h-6.009a136.127,136.127,0,0,1-46.434-94.83L408.457,32ZM288,32a32,32,0,0,1-64,0ZM256,80a48.054,48.054,0,0,0,48-48h16a64,64,0,0,1-128,0h16A48.054,48.054,0,0,0,256,80Zm0,32a80.091,80.091,0,0,0,80-80h16a96,96,0,0,1-192,0h16A80.091,80.091,0,0,0,256,112ZM99.479,105.17A136.123,136.123,0,0,1,53.045,200H47.036A244.064,244.064,0,0,0,84.206,84.945L87.516,32h16.027ZM71.484,32,68.237,83.947A228.086,228.086,0,0,1,32,193.815V32ZM32,336V248h1.137l13.538,88Zm30.864,0L49.325,248h1.181l33.846,88Zm398.63-88h1.181l-13.539,88H427.648ZM480,336H465.325l13.538-88H480Z"/><path d="M464,440V406a22.025,22.025,0,0,0-22-22H390a21.9,21.9,0,0,0-14,5.042A21.9,21.9,0,0,0,362,384H310a21.9,21.9,0,0,0-14,5.042A21.9,21.9,0,0,0,282,384H230a21.9,21.9,0,0,0-14,5.042A21.9,21.9,0,0,0,202,384H150a21.9,21.9,0,0,0-14,5.042A21.9,21.9,0,0,0,122,384H70a22.025,22.025,0,0,0-22,22v34a8,8,0,0,0,8,8H88.838A21.931,21.931,0,0,0,88,454v34a8,8,0,0,0,8,8H416a8,8,0,0,0,8-8V454a21.931,21.931,0,0,0-.838-6H456A8,8,0,0,0,464,440ZM310,400h52a6.006,6.006,0,0,1,6,6v26H350a21.9,21.9,0,0,0-14,5.042A21.9,21.9,0,0,0,322,432H304V406A6.006,6.006,0,0,1,310,400Zm-80,0h52a6.006,6.006,0,0,1,6,6v26H270a21.9,21.9,0,0,0-14,5.042A21.9,21.9,0,0,0,242,432H224V406A6.006,6.006,0,0,1,230,400Zm-80,0h52a6.006,6.006,0,0,1,6,6v26H190a21.9,21.9,0,0,0-14,5.042A21.9,21.9,0,0,0,162,432H144V406A6.006,6.006,0,0,1,150,400Zm-86,6a6.006,6.006,0,0,1,6-6h52a6.006,6.006,0,0,1,6,6v26H64Zm40,48a6.006,6.006,0,0,1,6-6h52a6.006,6.006,0,0,1,6,6v26H104Zm80,0a6.006,6.006,0,0,1,6-6h52a6.006,6.006,0,0,1,6,6v26H184Zm80,0a6.006,6.006,0,0,1,6-6h52a6.006,6.006,0,0,1,6,6v26H264Zm144,0v26H344V454a6.006,6.006,0,0,1,6-6h52A6.006,6.006,0,0,1,408,454Zm40-22H384V406a6.006,6.006,0,0,1,6-6h52a6.006,6.006,0,0,1,6,6Z"/><circle cx="256" cy="240" r="8"/><circle cx="256" cy="192" r="8"/><circle cx="280" cy="216" r="8"/><circle cx="232" cy="216" r="8"/><path d="M360,160H256a55.963,55.963,0,0,0-39.138,96H152a8,8,0,0,0,0,16H256a55.724,55.724,0,0,0,20.944-4.047v13.575a11.983,11.983,0,0,0,17.368,10.733l35.055-17.528a12,12,0,0,0,0-21.466l-23.506-11.753A55.954,55.954,0,0,0,295.139,176H360a8,8,0,0,0,0-16ZM292.944,275.056V252.944L315.056,264ZM296,216a39.733,39.733,0,0,1-4.642,18.714,12.005,12.005,0,0,0-14.414,11.758v3.609A39.613,39.613,0,0,1,256,256a40,40,0,1,1,40-40Z"/></g></svg>
