<?xml version="1.0"?>
<svg xmlns="http://www.w3.org/2000/svg" viewBox="0 0 64 64" width="512" height="512"><g id="Glyph"><rect x="26" y="4" width="12" height="2"/><path d="M24,15V11a2,2,0,0,0,0,4Z"/><path d="M38,8H26V24H38Zm-5,2h2v2H33Zm-4,0h2v2H29Zm5,8a2,2,0,0,0-4,0H28a4,4,0,0,1,8,0Z"/><path d="M42,13a2,2,0,0,0-2-2v4A2,2,0,0,0,42,13Z"/><path d="M26.445,30.168l1.11,1.664L25,33.535V46H39V33.535l-2.555-1.7,1.11-1.664,2.318,1.545,3.375-3.376L37.8,26h-1.26l-3.7,5.555a1,1,0,0,1-1.664,0L27.465,26h-1.26l-5.453,2.337,3.375,3.376ZM31,34h2v2H31Zm0,4h2v2H31Zm0,4h2v2H31Z"/><polygon points="34.132 26 29.868 26 32 29.197 34.132 26"/><path d="M56,33h2a1,1,0,0,0,0-2H54.351l-4.726,3.781a1,1,0,0,1-1.457-.226l-3.323-4.986-1.558,1.558,4.959,7.438L55.4,33.2A1,1,0,0,1,56,33Z"/><path d="M29,51a4,4,0,0,1-4,4v5h6V48H29Z"/><path d="M35,51V48H33V60h6V55A4,4,0,0,1,35,51Z"/><path d="M19.155,29.569l-3.323,4.986a1,1,0,0,1-1.457.226L9.649,31H6a1,1,0,0,0,0,2H8a1,1,0,0,1,.6.2l7.154,5.365,4.959-7.438Z"/><path d="M44.316,49.8,39.808,48H37v3a2,2,0,0,0,2,2h2.132l-.964-1.445,1.664-1.11s3.941,6.041,4.721,5.66a1.147,1.147,0,0,0,.552-1.658Z"/><path d="M25,53a2,2,0,0,0,2-2V48H24.192l-4.507,1.8-2.828,4.711a1.126,1.126,0,0,0,.59,1.59c.742.371,4.721-5.66,4.721-5.66l1.664,1.11L22.868,53Z"/><path d="M57.707,40.293l-1.414,1.414,2,2a1,1,0,0,0,1.414,0l2-2-1.414-1.414L59,41.586Z"/><path d="M16,23a1,1,0,0,0,.707-.293l2-2-1.414-1.414L16,20.586l-1.293-1.293-1.414,1.414,2,2A1,1,0,0,0,16,23Z"/><path d="M9,26a1,1,0,0,0,.707-.293l2-2-1.414-1.414L9,23.586,7.707,22.293,6.293,23.707l2,2A1,1,0,0,0,9,26Z"/><path d="M58,46a7.778,7.778,0,0,1-.684,3.523c-1.522-2.407-3.159-2.748-4.031-2.688a2.973,2.973,0,0,0-2.632,1.894,2.757,2.757,0,0,0,.64,2.978,5.019,5.019,0,0,0,5.293,1.111,1.479,1.479,0,0,1-.189,1.1c-.814,1.172-3.914,1.241-5.288,1.09l-.219,1.988a14.036,14.036,0,0,0,1.489.074c1.733,0,4.464-.294,5.658-2.007a3.728,3.728,0,0,0,.288-3.488C59.22,50.56,60,48.855,60,46Zm-5.293,4.293a.743.743,0,0,1-.188-.842.974.974,0,0,1,.861-.619h.053c.767,0,1.646.781,2.413,2.129A3.011,3.011,0,0,1,52.707,50.293Z"/></g></svg>
